<svg width="24" height="24" viewBox="0 0 24 24" fill="none" xmlns="http://www.w3.org/2000/svg">
<path d="M12 2.40002C10.0904 2.40002 8.25906 3.15859 6.9088 4.50886C5.55853 5.85912 4.79996 7.69047 4.79996 9.60002V13.9032L3.95156 14.7516C3.78379 14.9194 3.66954 15.1332 3.62326 15.366C3.57698 15.5987 3.60075 15.84 3.69155 16.0592C3.78235 16.2784 3.93612 16.4658 4.13341 16.5977C4.33071 16.7296 4.56266 16.8 4.79996 16.8H19.2C19.4373 16.8 19.6692 16.7296 19.8665 16.5977C20.0638 16.4658 20.2176 16.2784 20.3084 16.0592C20.3992 15.84 20.4229 15.5987 20.3767 15.366C20.3304 15.1332 20.2161 14.9194 20.0484 14.7516L19.2 13.9032V9.60002C19.2 7.69047 18.4414 5.85912 17.0911 4.50886C15.7409 3.15859 13.9095 2.40002 12 2.40002ZM12 21.6C11.0452 21.6 10.1295 21.2207 9.45438 20.5456C8.77925 19.8705 8.39996 18.9548 8.39996 18H15.6C15.6 18.9548 15.2207 19.8705 14.5455 20.5456C13.8704 21.2207 12.9547 21.6 12 21.6Z" fill="#111827"/>
</svg>
