<svg width="24" height="24" viewBox="0 0 24 24" fill="none" xmlns="http://www.w3.org/2000/svg">
<path fill-rule="evenodd" clip-rule="evenodd" d="M12 2.40002C9.34916 2.40002 7.19996 4.54922 7.19996 7.20002V8.40002H5.99996C5.38796 8.40002 4.87438 8.85964 4.80718 9.46804L3.60718 20.268C3.56998 20.6064 3.67797 20.946 3.90597 21.2004C4.13397 21.4548 4.45916 21.6 4.79996 21.6H19.2C19.5408 21.6 19.866 21.4548 20.094 21.2004C20.322 20.946 20.4299 20.6064 20.3927 20.268L19.1927 9.46804C19.1255 8.85964 18.612 8.40002 18 8.40002H16.8V7.20002C16.8 4.54922 14.6508 2.40002 12 2.40002ZM14.4 8.40002V7.20002C14.4 5.87402 13.326 4.80002 12 4.80002C10.674 4.80002 9.59996 5.87402 9.59996 7.20002V8.40002H14.4ZM7.19996 12C7.19996 11.3376 7.73756 10.8 8.39996 10.8C9.06236 10.8 9.59996 11.3376 9.59996 12C9.59996 12.6624 9.06236 13.2 8.39996 13.2C7.73756 13.2 7.19996 12.6624 7.19996 12ZM15.6 10.8C14.9376 10.8 14.4 11.3376 14.4 12C14.4 12.6624 14.9376 13.2 15.6 13.2C16.2624 13.2 16.8 12.6624 16.8 12C16.8 11.3376 16.2624 10.8 15.6 10.8Z" fill="#111827"/>
</svg>
